<svg xmlns="http://www.w3.org/2000/svg" width="617" height="57" viewBox="0 0 617 57" fill="none">
  <path d="M 0 56 C -0.552 56 -1 56.448 -1 57 C -1 57.552 -0.552 58 0 58 L 0 57 L 0 56 Z M 88.938 55.304 L 88.968 56.303 L 88.938 55.304 Z M 235.01 47.059 L 235.021 46.059 L 235.01 47.059 Z M 329.859 32.06 L 329.641 31.084 L 329.859 32.06 Z M 425.595 15.221 L 425.498 14.226 L 425.595 15.221 Z M 545.462 6.678 L 545.798 7.62 L 545.83 7.609 L 545.86 7.595 L 545.462 6.678 Z M 616.59 8.567 C 617.094 8.793 617.686 8.568 617.912 8.065 C 618.138 7.561 617.914 6.969 617.41 6.743 L 617 7.655 L 616.59 8.567 Z M 0 57 L 0 58 C 4.452 58 32.664 58 88.968 56.303 L 88.938 55.304 L 88.908 54.304 C 32.626 56 4.433 56 0 56 L 0 57 Z M 88.938 55.304 L 88.968 56.303 C 121.313 55.329 150.657 53.181 175.498 51.321 C 200.362 49.459 220.665 47.89 234.998 48.059 L 235.01 47.059 L 235.021 46.059 C 220.58 45.889 200.167 47.468 175.349 49.327 C 150.508 51.187 121.204 53.331 88.908 54.304 L 88.938 55.304 Z M 235.01 47.059 L 234.998 48.059 C 249.874 48.234 282.625 43.645 330.078 33.036 L 329.859 32.06 L 329.641 31.084 C 282.188 41.694 249.641 46.231 235.021 46.059 L 235.01 47.059 Z M 329.859 32.06 L 330.078 33.036 C 356.464 27.137 383.629 20.321 425.693 16.216 L 425.595 15.221 L 425.498 14.226 C 383.291 18.345 356.005 25.19 329.641 31.084 L 329.859 32.06 Z M 425.595 15.221 L 425.693 16.216 C 462.406 12.633 484.948 13.136 502.033 13.218 C 519.134 13.299 530.866 12.961 545.798 7.62 L 545.462 6.678 L 545.125 5.737 C 530.543 10.953 519.111 11.299 502.042 11.218 C 484.957 11.136 462.324 10.632 425.498 14.226 L 425.595 15.221 Z M 545.462 6.678 L 545.86 7.595 C 552.965 4.508 558.041 2.511 569.458 1.475 L 569.368 0.479 L 569.277 -0.517 C 557.584 0.544 552.295 2.619 545.063 5.761 L 545.462 6.678 Z M 569.368 0.479 L 569.458 1.475 C 580.928 0.434 598.502 0.442 616.59 8.567 L 617 7.655 L 617.41 6.743 C 598.882 -1.58 580.917 -1.573 569.277 -0.517 L 569.368 0.479 Z" fill="currentColor" fill-rule="nonzero"></path>
</svg>