<svg xmlns="http://www.w3.org/2000/svg" width="2628.323" height="331.487" viewBox="0 0 2628.323 331.487" fill="none">
  <path d="M -4 331.487 C -4 333.697 -2.209 335.487 0 335.487 C 2.209 335.487 4 333.697 4 331.487 L 0 331.487 L -4 331.487 Z M 66.966 195.139 L 63.662 192.884 L 63.662 192.884 L 66.966 195.139 Z M 514.012 102.056 L 512.443 98.376 L 514.012 102.056 Z M 775.62 45.749 L 775.127 41.779 L 775.127 41.779 L 775.62 45.749 Z M 1198.402 50.085 L 1198.36 54.085 L 1198.36 54.085 L 1198.402 50.085 Z M 1372.422 40.22 L 1373.03 44.174 L 1372.422 40.22 Z M 1817.846 30.29 L 1817.9 34.289 L 1817.846 30.29 Z M 2135.496 0.398 L 2135.655 -3.599 L 2135.496 0.398 Z M 2555.994 42.306 L 2556.384 38.325 L 2555.994 42.306 Z M 2598.465 84.081 L 2602.446 83.696 L 2602.424 83.462 L 2602.374 83.233 L 2598.465 84.081 Z M 2609.554 249.493 L 2605.555 249.583 L 2605.556 249.647 L 2605.56 249.71 L 2609.554 249.493 Z M 2625.3 301.005 C 2626.747 302.674 2629.273 302.855 2630.942 301.408 C 2632.612 299.961 2632.792 297.435 2631.345 295.766 L 2628.323 298.385 L 2625.3 301.005 Z M 0 331.487 L 4 331.487 C 4 321.539 9.09 304.688 20.169 281.643 C 31.159 258.781 47.788 230.333 70.27 197.394 L 66.966 195.139 L 63.662 192.884 C 41.025 226.05 24.171 254.853 12.958 278.177 C 1.833 301.318 -4 319.588 -4 331.487 L 0 331.487 Z M 66.966 195.139 L 70.27 197.394 C 120.85 123.286 219.053 104.927 311.989 103.11 C 358.293 102.205 402.824 105.405 438.879 107.612 C 456.862 108.712 472.804 109.569 485.724 109.522 C 498.446 109.476 508.936 108.57 515.582 105.735 L 514.012 102.056 L 512.443 98.376 C 507.469 100.498 498.513 101.476 485.694 101.522 C 473.073 101.568 457.38 100.729 439.368 99.627 C 403.432 97.428 358.532 94.199 311.833 95.112 C 218.765 96.932 116.683 115.201 63.662 192.884 L 66.966 195.139 Z M 514.012 102.056 L 515.582 105.735 C 573.669 80.952 624.878 68.511 776.113 49.718 L 775.62 45.749 L 775.127 41.779 C 623.74 60.591 571.606 73.135 512.443 98.376 L 514.012 102.056 Z M 775.62 45.749 L 776.113 49.718 C 830.077 43.012 907.939 43.79 986.318 46.418 C 1064.503 49.039 1143.249 53.505 1198.36 54.085 L 1198.402 50.085 L 1198.445 46.085 C 1143.425 45.506 1065.099 41.054 986.586 38.422 C 908.266 35.796 829.803 34.985 775.127 41.779 L 775.62 45.749 Z M 1198.402 50.085 L 1198.36 54.085 C 1319.692 55.361 1344.285 48.599 1373.03 44.174 L 1372.422 40.22 L 1371.813 36.267 C 1343.357 40.647 1319.219 47.356 1198.445 46.085 L 1198.402 50.085 Z M 1372.422 40.22 L 1373.03 44.174 C 1389.128 41.696 1439.194 40.029 1516.15 38.585 C 1592.92 37.145 1696.038 35.928 1817.9 34.289 L 1817.846 30.29 L 1817.792 26.29 C 1695.955 27.928 1592.798 29.146 1516 30.587 C 1439.386 32.024 1388.59 33.684 1371.813 36.267 L 1372.422 40.22 Z M 1817.846 30.29 L 1817.9 34.289 C 1901.836 33.16 1954.567 24.575 1999.708 16.829 C 2044.775 9.096 2081.984 2.262 2135.336 4.395 L 2135.496 0.398 L 2135.655 -3.599 C 2081.359 -5.769 2043.382 1.218 1998.355 8.944 C 1953.402 16.658 1901.133 25.169 1817.792 26.29 L 1817.846 30.29 Z M 2135.496 0.398 L 2135.336 4.395 C 2302.547 11.079 2465.874 37.51 2555.605 46.287 L 2555.994 42.306 L 2556.384 38.325 C 2467.428 29.624 2303.106 3.095 2135.655 -3.599 L 2135.496 0.398 Z M 2555.994 42.306 L 2555.605 46.287 C 2571.366 47.828 2580.063 53.883 2585.326 60.973 C 2590.755 68.287 2592.858 77.106 2594.556 84.929 L 2598.465 84.081 L 2602.374 83.233 C 2600.695 75.498 2598.329 65.069 2591.75 56.205 C 2585.005 47.117 2574.156 40.063 2556.384 38.325 L 2555.994 42.306 Z M 2598.465 84.081 L 2594.483 84.466 C 2600.041 141.89 2604.466 201.231 2605.555 249.583 L 2609.554 249.493 L 2613.553 249.403 C 2612.457 200.766 2608.011 141.203 2602.446 83.696 L 2598.465 84.081 Z M 2609.554 249.493 L 2605.56 249.71 C 2606.109 259.809 2606.945 268.047 2609.763 276.093 C 2612.602 284.196 2617.346 291.827 2625.3 301.005 L 2628.323 298.385 L 2631.345 295.766 C 2623.807 287.068 2619.714 280.3 2617.313 273.448 C 2614.894 266.541 2614.091 259.271 2613.548 249.276 L 2609.554 249.493 Z" fill="currentColor" fill-rule="nonzero"></path>
</svg>