<svg xmlns="http://www.w3.org/2000/svg" width="1598.101" height="498.283" viewBox="0 0 1598.101 498.283" fill="none">
  <path d="M 12.052 499.652 C 12.809 501.728 15.105 502.797 17.18 502.041 C 19.256 501.285 20.325 498.989 19.569 496.913 L 15.811 498.283 L 12.052 499.652 Z M 0.319 248.526 L 4.319 248.573 L 0.319 248.526 Z M 128.127 118.798 L 126.156 115.317 L 128.127 118.798 Z M 294.83 76.857 L 293.087 73.257 L 294.83 76.857 Z M 627.972 48.125 L 628.528 52.086 L 627.972 48.125 Z M 829.697 10.62 L 829.08 6.668 L 829.697 10.62 Z M 1013.646 2.874 L 1013.485 -1.123 L 1013.646 2.874 Z M 1432.424 37.002 L 1431.325 40.848 L 1432.424 37.002 Z M 1540.701 170.371 L 1536.808 171.289 L 1536.808 171.289 L 1540.701 170.371 Z M 1582.609 372.262 L 1586.599 371.971 L 1586.579 371.71 L 1586.526 371.453 L 1582.609 372.262 Z M 1590.355 457.269 L 1594.338 456.902 L 1594.331 456.826 L 1594.321 456.751 L 1590.355 457.269 Z M 1594.653 493.69 C 1595.773 495.595 1598.224 496.23 1600.129 495.11 C 1602.033 493.99 1602.669 491.539 1601.548 489.634 L 1598.101 491.662 L 1594.653 493.69 Z M 15.811 498.283 L 19.569 496.913 C 11.051 473.538 2.199 430.234 4.319 248.573 L 0.319 248.526 L -3.681 248.479 C -5.798 429.95 2.96 474.699 12.052 499.652 L 15.811 498.283 Z M 0.319 248.526 L 4.319 248.573 C 4.752 211.423 23.09 187.222 47.935 168.562 C 60.416 159.187 74.489 151.258 88.725 143.834 C 102.841 136.473 117.341 129.502 130.098 122.279 L 128.127 118.798 L 126.156 115.317 C 113.54 122.461 99.491 129.198 85.026 136.74 C 70.682 144.22 56.145 152.39 43.13 162.165 C 16.984 181.803 -3.21 208.1 -3.681 248.479 L 0.319 248.526 Z M 128.127 118.798 L 130.098 122.279 C 163.293 103.484 194.111 98.037 221.987 94.85 C 235.82 93.269 249.299 92.212 261.638 90.335 C 274.072 88.444 285.821 85.664 296.573 80.458 L 294.83 76.857 L 293.087 73.257 C 283.365 77.965 272.509 80.589 260.435 82.426 C 248.266 84.277 235.333 85.272 221.079 86.902 C 192.78 90.137 160.72 95.747 126.156 115.317 L 128.127 118.798 Z M 294.83 76.857 L 296.573 80.458 C 341.864 58.526 408.566 53.514 472.481 53.028 C 504.358 52.785 535.269 53.662 562.306 54.051 C 589.208 54.437 612.437 54.346 628.528 52.086 L 627.972 48.125 L 627.415 44.163 C 612.043 46.323 589.446 46.44 562.421 46.052 C 535.531 45.665 504.413 44.785 472.42 45.028 C 408.594 45.514 340.189 50.449 293.087 73.257 L 294.83 76.857 Z M 627.972 48.125 L 628.528 52.086 C 653.707 48.549 679.509 43.012 711.23 36.463 C 742.989 29.907 780.838 22.303 830.315 14.572 L 829.697 10.62 L 829.08 6.668 C 779.415 14.428 741.421 22.062 709.613 28.629 C 677.767 35.203 652.276 40.672 627.415 44.163 L 627.972 48.125 Z M 829.697 10.62 L 830.315 14.572 C 858.337 10.193 883.568 9.088 912.142 8.671 C 940.681 8.256 972.661 8.528 1013.807 6.87 L 1013.646 2.874 L 1013.485 -1.123 C 972.472 0.529 940.773 0.253 912.025 0.672 C 883.313 1.091 857.649 2.203 829.08 6.668 L 829.697 10.62 Z M 1013.646 2.874 L 1013.807 6.87 C 1173.316 0.444 1266.129 5.664 1324.773 14.096 C 1383.397 22.525 1407.689 34.093 1431.325 40.848 L 1432.424 37.002 L 1433.523 33.156 C 1410.716 26.638 1385.25 14.709 1325.911 6.177 C 1266.592 -2.352 1173.238 -7.56 1013.485 -1.123 L 1013.646 2.874 Z M 1432.424 37.002 L 1431.325 40.848 C 1458.37 48.578 1481.977 69.291 1500.311 94.302 C 1518.619 119.276 1531.341 148.095 1536.808 171.289 L 1540.701 170.371 L 1544.595 169.454 C 1538.873 145.179 1525.684 115.382 1506.763 89.572 C 1487.87 63.799 1462.931 41.562 1433.523 33.156 L 1432.424 37.002 Z M 1540.701 170.371 L 1536.808 171.289 C 1552.639 238.454 1565.423 308.818 1578.692 373.071 L 1582.609 372.262 L 1586.526 371.453 C 1573.313 307.469 1560.457 236.753 1544.595 169.454 L 1540.701 170.371 Z M 1582.609 372.262 L 1578.62 372.554 C 1580.869 403.351 1583.061 432.332 1586.389 457.788 L 1590.355 457.269 L 1594.321 456.751 C 1591.028 431.56 1588.851 402.81 1586.599 371.971 L 1582.609 372.262 Z M 1590.355 457.269 L 1586.372 457.636 C 1587.458 469.417 1587.466 481.473 1594.653 493.69 L 1598.101 491.662 L 1601.548 489.634 C 1595.495 479.342 1595.504 469.55 1594.338 456.902 L 1590.355 457.269 Z" fill="currentColor" fill-rule="nonzero"></path>
</svg>