<svg xmlns="http://www.w3.org/2000/svg" width="9.024" height="11.954" viewBox="0 0 9.024 11.954" fill="none">
  <path d="M 2.157 11.907 C 2.157 11.907 2.126 11.821 2.063 11.649 C 2.008 11.485 1.932 11.264 1.835 10.987 C 1.737 10.709 1.622 10.383 1.489 10.008 C 1.364 9.641 1.227 9.25 1.079 8.836 C 0.93 8.414 0.793 8.02 0.668 7.653 C 0.536 7.278 0.42 6.952 0.323 6.674 C 0.225 6.397 0.149 6.176 0.094 6.012 C 0.032 5.848 0.001 5.762 0.001 5.754 C -0.007 5.739 0.073 5.729 0.241 5.725 C 0.409 5.721 0.907 5.719 1.735 5.719 C 2.422 5.719 2.885 5.717 3.124 5.713 C 3.362 5.709 3.481 5.7 3.481 5.684 C 3.481 5.676 3.407 5.393 3.258 4.834 C 3.11 4.276 2.93 3.61 2.719 2.836 C 2.508 2.055 2.329 1.387 2.18 0.832 C 2.032 0.278 1.958 0 1.958 0 C 1.965 -0.007 2.059 0.098 2.239 0.317 C 2.426 0.528 2.68 0.817 3.001 1.184 C 3.321 1.551 3.696 1.981 4.126 2.473 C 4.555 2.973 5.012 3.5 5.497 4.055 L 9.024 8.145 L 6.985 8.145 C 6.422 8.145 5.94 8.147 5.538 8.151 C 5.135 8.155 4.934 8.157 4.934 8.157 C 4.934 8.164 5.006 8.293 5.151 8.543 C 5.295 8.793 5.469 9.094 5.672 9.446 C 5.876 9.797 6.083 10.159 6.293 10.53 C 6.504 10.901 6.661 11.168 6.762 11.332 L 7.114 11.954 L 4.641 11.954 C 3.477 11.954 2.774 11.952 2.532 11.948 C 2.29 11.944 2.165 11.93 2.157 11.907 Z" fill="currentColor" fill-rule="nonzero"></path>
</svg>