<svg xmlns="http://www.w3.org/2000/svg" width="866.731" height="815.012" viewBox="0 0 866.731 815.012" fill="none">
  <path d="M 596.18 147.559 C 610.233 172.242 638.34 228.497 638.34 226.399 C 638.34 209.513 694.012 189.104 758.873 226.399 C 785.358 241.173 841.679 275.909 855.083 296.665 C 866.254 320.807 879.298 388.659 842.111 466.925 C 776.169 541.695 634.664 694.154 596.18 705.829 C 559.966 738.98 480.403 805.283 451.865 805.283 C 423.326 805.283 439.973 811.769 451.865 815.012 C 366.104 803.841 197.177 758.583 207.555 666.913 C 207.555 643.31 210.474 595.025 222.149 590.701 C 236.742 585.296 7.027 667.994 0 529.624 C 3.243 462.421 31.89 310.286 120.533 239.371 C 167.918 155.412 277.497 -9.911 336.736 0.467 C 410.786 13.439 483.214 2.629 527.536 28.573 C 535.611 33.3 541.223 36.322 544.951 38.069 L 540.508 28.573 C 548.578 35.252 557.593 43.993 544.951 38.069 L 596.18 147.559 Z" fill="currentColor" fill-rule="nonzero"></path>
  <path d="M 596.18 147.559 L 595.727 147.771 L 595.736 147.789 L 595.746 147.806 L 596.18 147.559 Z M 758.873 226.399 L 758.624 226.832 L 758.629 226.835 L 758.873 226.399 Z M 855.083 296.665 L 855.537 296.455 L 855.522 296.423 L 855.503 296.394 L 855.083 296.665 Z M 842.111 466.925 L 842.486 467.255 L 842.533 467.203 L 842.563 467.139 L 842.111 466.925 Z M 596.18 705.829 L 596.035 705.351 L 595.926 705.384 L 595.843 705.46 L 596.18 705.829 Z M 451.865 815.012 L 451.8 815.508 L 451.996 814.529 L 451.865 815.012 Z M 207.555 666.913 L 208.052 666.969 L 208.055 666.941 L 208.055 666.913 L 207.555 666.913 Z M 222.149 590.701 L 222.322 591.17 L 222.322 591.17 L 222.149 590.701 Z M 0 529.624 L -0.499 529.6 L -0.501 529.624 L -0.499 529.649 L 0 529.624 Z M 120.533 239.371 L 120.846 239.761 L 120.921 239.701 L 120.969 239.617 L 120.533 239.371 Z M 336.736 0.467 L 336.823 -0.026 L 336.736 0.467 Z M 527.536 28.573 L 527.283 29.004 L 527.283 29.004 L 527.536 28.573 Z M 540.508 28.573 L 540.827 28.188 L 540.055 28.785 L 540.508 28.573 Z M 596.18 147.559 L 595.746 147.806 C 602.766 160.137 613.301 180.362 622.086 197.253 C 626.477 205.695 630.431 213.304 633.287 218.671 C 634.715 221.354 635.871 223.482 636.671 224.875 C 637.069 225.568 637.387 226.093 637.609 226.415 C 637.711 226.561 637.824 226.714 637.935 226.808 C 637.965 226.834 638.017 226.875 638.087 226.907 C 638.151 226.935 638.301 226.989 638.481 226.928 C 638.679 226.86 638.769 226.704 638.804 226.609 C 638.836 226.521 638.84 226.441 638.84 226.399 L 638.34 226.399 L 637.84 226.399 C 637.84 226.389 637.84 226.335 637.865 226.265 C 637.893 226.189 637.973 226.045 638.158 225.982 C 638.324 225.925 638.457 225.976 638.501 225.996 C 638.55 226.019 638.579 226.043 638.583 226.047 C 638.586 226.049 638.54 226.002 638.432 225.846 C 638.236 225.562 637.936 225.069 637.538 224.377 C 636.747 222.999 635.597 220.883 634.17 218.201 C 631.317 212.84 627.366 205.236 622.973 196.791 C 614.192 179.908 603.647 159.663 596.615 147.311 L 596.18 147.559 Z M 638.34 226.399 L 638.84 226.399 C 638.84 222.452 642.116 218.141 648.307 214.46 C 654.466 210.799 663.38 207.847 674.341 206.578 C 696.255 204.039 726.281 208.235 758.624 226.832 L 758.873 226.399 L 759.122 225.965 C 726.603 207.267 696.363 203.02 674.226 205.584 C 663.161 206.866 654.104 209.851 647.796 213.601 C 641.522 217.331 637.84 221.902 637.84 226.399 L 638.34 226.399 Z M 758.873 226.399 L 758.629 226.835 C 771.861 234.217 792.549 246.586 811.6 259.701 C 821.125 266.258 830.235 272.997 837.797 279.389 C 845.367 285.788 851.354 291.812 854.663 296.936 L 855.083 296.665 L 855.503 296.394 C 852.111 291.14 846.03 285.039 838.443 278.625 C 830.847 272.205 821.708 265.445 812.167 258.877 C 793.085 245.741 772.37 233.355 759.117 225.962 L 758.873 226.399 Z M 855.083 296.665 L 854.63 296.875 C 865.739 320.886 878.781 388.582 841.66 466.71 L 842.111 466.925 L 842.563 467.139 C 879.815 388.736 866.768 320.729 855.537 296.455 L 855.083 296.665 Z M 842.111 466.925 L 841.736 466.594 C 808.769 503.974 756.914 560.774 708.494 609.686 C 684.283 634.142 660.936 656.621 641.242 673.712 C 631.394 682.258 622.466 689.451 614.803 694.87 C 607.13 700.297 600.764 703.916 596.035 705.351 L 596.18 705.829 L 596.325 706.308 C 601.217 704.824 607.692 701.124 615.381 695.687 C 623.08 690.241 632.036 683.024 641.897 674.467 C 661.619 657.352 684.986 634.853 709.204 610.389 C 757.643 561.46 809.511 504.645 842.486 467.255 L 842.111 466.925 Z M 596.18 705.829 L 595.843 705.46 C 577.744 722.028 548.814 746.879 520.847 767.586 C 506.862 777.939 493.129 787.249 481.117 793.968 C 475.111 797.328 469.544 800.035 464.598 801.901 C 459.645 803.769 455.345 804.783 451.865 804.783 L 451.865 805.283 L 451.865 805.783 C 455.519 805.783 459.948 804.724 464.95 802.837 C 469.959 800.947 475.573 798.215 481.605 794.841 C 493.669 788.093 507.441 778.755 521.442 768.389 C 549.444 747.657 578.402 722.782 596.518 706.198 L 596.18 705.829 Z M 451.865 805.283 L 451.865 804.783 C 444.732 804.783 440.356 805.186 438.013 805.867 C 437.423 806.038 436.94 806.233 436.566 806.457 C 436.196 806.679 435.899 806.951 435.737 807.29 C 435.378 808.039 435.803 808.752 436.354 809.289 C 436.929 809.849 437.819 810.409 438.887 810.953 C 439.962 811.503 441.253 812.055 442.656 812.59 C 445.463 813.662 448.75 814.681 451.733 815.494 L 451.865 815.012 L 451.996 814.529 C 449.033 813.721 445.78 812.713 443.013 811.656 C 441.629 811.128 440.374 810.59 439.341 810.063 C 438.3 809.531 437.518 809.026 437.052 808.573 C 436.564 808.097 436.579 807.847 436.639 807.722 C 436.685 807.624 436.804 807.48 437.081 807.315 C 437.354 807.151 437.749 806.985 438.292 806.827 C 440.483 806.19 444.728 805.783 451.865 805.783 L 451.865 805.283 Z M 451.865 815.012 L 451.929 814.516 C 409.079 808.935 345.462 794.837 293.87 770.697 C 268.073 758.626 245.315 744.059 229.66 726.819 C 214.014 709.589 205.477 689.71 208.052 666.969 L 207.555 666.913 L 207.058 666.856 C 204.444 689.951 213.131 710.105 228.92 727.492 C 244.7 744.869 267.589 759.503 293.446 771.602 C 345.163 795.801 408.889 809.918 451.8 815.508 L 451.865 815.012 Z M 207.555 666.913 L 208.055 666.913 C 208.055 655.126 208.784 637.179 210.969 621.647 C 212.062 613.879 213.516 606.737 215.415 601.279 C 216.365 598.549 217.42 596.26 218.585 594.528 C 219.752 592.792 221 591.659 222.322 591.17 L 222.149 590.701 L 221.975 590.232 C 220.378 590.824 218.982 592.145 217.755 593.97 C 216.525 595.799 215.436 598.176 214.471 600.95 C 212.54 606.498 211.075 613.714 209.979 621.508 C 207.785 637.1 207.055 655.097 207.055 666.913 L 207.555 666.913 Z M 222.149 590.701 L 222.322 591.17 C 222.55 591.085 222.721 591.021 222.836 590.977 C 222.892 590.956 222.939 590.937 222.974 590.922 C 222.989 590.916 223.013 590.905 223.037 590.893 C 223.052 590.885 223.089 590.863 223.113 590.845 C 223.181 590.785 223.312 590.38 223.153 590.074 C 223.012 589.983 222.808 589.943 222.765 589.945 C 222.745 589.947 222.716 589.952 222.703 589.954 C 222.68 589.959 222.657 589.965 222.64 589.969 C 222.603 589.979 222.553 589.993 222.496 590.011 C 222.378 590.046 222.208 590.099 221.987 590.167 C 221.104 590.443 219.384 590.985 216.937 591.721 C 212.045 593.193 204.25 595.437 194.463 597.85 C 174.886 602.677 147.355 608.176 119.158 609.525 C 90.95 610.874 62.14 608.067 39.961 596.34 C 17.824 584.634 2.247 564.019 0.499 529.598 L 0 529.624 L -0.499 529.649 C 1.266 564.413 17.038 585.35 39.494 597.224 C 61.907 609.076 90.931 611.876 119.206 610.524 C 147.492 609.17 175.093 603.656 194.702 598.821 C 204.509 596.403 212.321 594.154 217.225 592.679 C 219.678 591.941 221.403 591.397 222.285 591.122 C 222.506 591.053 222.671 591.002 222.782 590.969 C 222.838 590.952 222.875 590.941 222.897 590.936 C 222.909 590.932 222.909 590.933 222.902 590.934 C 222.897 590.935 222.873 590.939 222.858 590.94 C 222.819 590.942 222.618 590.902 222.478 590.812 C 222.32 590.507 222.45 590.103 222.515 590.045 C 222.536 590.029 222.569 590.009 222.578 590.005 C 222.589 589.999 222.594 589.997 222.583 590.002 C 222.564 590.01 222.53 590.023 222.476 590.044 C 222.369 590.086 222.203 590.148 221.975 590.232 L 222.149 590.701 Z M 0 529.624 L 0.499 529.648 C 2.119 496.088 10.084 441.3 28.715 386.049 C 47.349 330.79 76.632 275.132 120.846 239.761 L 120.533 239.371 L 120.221 238.981 C 75.791 274.524 46.429 330.391 27.768 385.729 C 9.104 441.076 1.124 495.956 -0.499 529.6 L 0 529.624 Z M 120.533 239.371 L 120.969 239.617 C 144.652 197.652 183.878 135.357 224.578 84.856 C 244.93 59.604 265.635 37.32 284.937 22.002 C 304.269 6.66 322.071 -1.595 336.65 0.959 L 336.736 0.467 L 336.823 -0.026 C 321.782 -2.661 303.671 5.858 284.316 21.219 C 264.93 36.604 244.171 58.952 223.8 84.229 C 183.054 134.785 143.799 197.131 120.098 239.125 L 120.533 239.371 Z M 336.736 0.467 L 336.65 0.959 C 373.71 7.451 410.381 7.994 443.251 10.154 C 476.16 12.317 505.236 16.099 527.283 29.004 L 527.536 28.573 L 527.788 28.141 C 505.514 15.103 476.215 11.318 443.317 9.156 C 410.38 6.992 373.812 6.454 336.823 -0.026 L 336.736 0.467 Z M 527.536 28.573 L 527.283 29.004 C 535.362 33.734 540.99 36.765 544.739 38.522 L 544.951 38.069 L 545.163 37.617 C 541.456 35.879 535.86 32.866 527.788 28.141 L 527.536 28.573 Z M 544.951 38.069 L 544.739 38.522 C 546.328 39.267 547.589 39.787 548.563 40.111 C 549.515 40.427 550.26 40.579 550.781 40.521 C 551.05 40.49 551.338 40.395 551.535 40.153 C 551.738 39.905 551.762 39.605 551.723 39.352 C 551.649 38.88 551.32 38.322 550.899 37.75 C 549.174 35.413 544.853 31.52 540.827 28.188 L 540.508 28.573 L 540.189 28.958 C 544.232 32.304 548.454 36.122 550.094 38.344 C 550.514 38.912 550.702 39.297 550.735 39.505 C 550.748 39.593 550.722 39.568 550.761 39.521 C 550.794 39.48 550.803 39.512 550.669 39.527 C 550.384 39.559 549.822 39.475 548.878 39.162 C 547.957 38.855 546.735 38.353 545.163 37.617 L 544.951 38.069 Z M 540.508 28.573 L 540.055 28.785 L 544.498 38.281 L 544.951 38.069 L 545.404 37.857 L 540.961 28.361 L 540.508 28.573 Z M 544.951 38.069 L 544.498 38.281 L 595.727 147.771 L 596.18 147.559 L 596.633 147.347 L 545.404 37.857 L 544.951 38.069 Z" fill="currentColor" fill-rule="nonzero"></path>
</svg>